<svg xmlns="http://www.w3.org/2000/svg" width="1706.667" height="1664" viewBox="0 0 1280 1248" preserveAspectRatio="xMidYMid meet" xmlns:v="https://vecta.io/nano"><path d="M600.5.6L585.6 2C531.4 7.3 476.9 27.3 430 59.1 321.1 132.9 264.1 262 283 392.2c11.7 80.2 50.7 151.8 112.9 207.5 45.4 40.6 105.7 69.7 166.6 80.2 22 3.9 31.7 4.6 59.5 4.6s37.5-.7 59.5-4.6c121.8-21.1 225-109.6 264.7-226.9 35.3-104.3 18.9-218-44.2-307.5C845.2 65.1 758.3 13.7 659.5 2c-9.2-1.1-51.8-2.1-59-1.4zm258 658.8c-47.8 36.3-108.5 62.6-168.7 73-24.7 4.3-34.8 5.1-67.8 5.1-31.9 0-36.4-.3-61.2-4.1-58.6-8.8-117.1-32.6-166.8-67.6l-11.4-8.1-10.6 1.7c-5.8 1-18.1 3.8-27.5 6.1-80.7 20.4-152.8 61.6-212 121C59.9 859.3 15.5 952 2.8 1056.9c-2.9 23.8-3.2 74.1-.5 93 5.3 37.8 14.2 58.9 32 75.8 17.1 16.3 42.1 23.4 77.2 22 26.9-1.1 53.3-5.5 123-20.8 81.7-17.9 119.5-24.4 169-29.1 20.5-1.9 452.5-1.9 473 0 49.5 4.7 87.3 11.2 169 29.1 69.7 15.3 96.1 19.7 123 20.8 25.4 1 43.8-2.1 60.5-10.3 17.2-8.4 31.5-25.4 39-46.3 7.4-20.3 10.8-42 11.7-73.6 3.4-123-45.1-243.9-133.2-332-70.7-70.7-160.8-115.6-259.7-129.4-20.6-2.9-20.1-3-28.3 3.3z"/></svg>