<svg xmlns="http://www.w3.org/2000/svg" width="22" height="27" fill="none" xmlns:v="https://vecta.io/nano"><path d="M11.938 10.31h-1.875V4.134L6.746 7.451a.94.94 0 0 1-1.33.006.94.94 0 0 1-.006-1.33l4.922-4.922a.95.95 0 0 1 1.336 0l4.922 4.922c.175.176.274.414.274.662s-.098.486-.274.662a.94.94 0 0 1-.668.28.94.94 0 0 1-.362-.073c-.115-.048-.219-.118-.306-.207l-3.316-3.316v6.176zm7.5 0h-7.5v4.688a.94.94 0 0 1-.937.938.94.94 0 0 1-.937-.937V10.31h-7.5c-.497 0-.974.197-1.326.549s-.549.829-.549 1.326v12.187c0 .497.198.974.549 1.326s.829.549 1.326.549h16.875c.497 0 .974-.198 1.326-.549s.549-.829.549-1.326V12.185c0-.497-.198-.974-.549-1.326s-.829-.549-1.326-.549z" fill="#000"/></svg>