<svg xmlns="http://www.w3.org/2000/svg" width="48" height="41" fill="none" xmlns:v="https://vecta.io/nano"><path d="M1.031 40.987h45.938a.47.47 0 0 0 .469-.466v-3.725a.47.47 0 0 0-.469-.466H1.031a.47.47 0 0 0-.469.466v3.725a.47.47 0 0 0 .469.466zm0-36.319h45.938a.47.47 0 0 0 .469-.466V.477a.47.47 0 0 0-.469-.466H1.031a.47.47 0 0 0-.469.466v3.725a.47.47 0 0 0 .469.466zm0 18.159h45.938a.47.47 0 0 0 .469-.466v-3.725a.47.47 0 0 0-.469-.466H1.031a.47.47 0 0 0-.469.466v3.725a.47.47 0 0 0 .469.466z" fill="#131313"/></svg>